<!-- Generated by IcoMoon.io -->
<svg version="1.1" xmlns="http://www.w3.org/2000/svg" width="1024" height="1024" viewBox="0 0 1024 1024">
<title></title>
<g id="icomoon-ignore">
</g>
<path d="M255.38 102.4c-84.744 0-152.98 68.113-152.98 152.705v530.897c0 84.593 68.236 152.704 152.98 152.704h212.902v-326.943h-86.61v-117.711h86.61v-100.564c0-79.012 51.172-151.556 169.055-151.556 47.729 0 83.023 4.574 83.023 4.574l-2.775 109.923c0 0-35.996-0.34-75.274-0.34-42.509 0-49.326 19.551-49.326 52.009v85.955h127.977l-5.576 117.711h-122.401v326.943l194.253 0.003c84.744 0 152.98-68.114 152.98-152.707v-530.897c0-84.592-68.237-152.705-152.98-152.705l-531.858-0.001z"></path>
</svg>
