<svg width="43" height="43" viewBox="0 0 43 43" fill="none" xmlns="http://www.w3.org/2000/svg">
<path d="M7.1667 40.1333C6.02627 40.1333 4.93255 39.6803 4.12614 38.8739C3.31973 38.0675 2.8667 36.9738 2.8667 35.8333L2.8667 14.3333C2.8667 11.2922 4.07479 8.37559 6.22521 6.22517C8.37563 4.07476 11.2922 2.86666 14.3334 2.86666L14.3334 5.73333C12.0525 5.73333 9.86506 6.6394 8.25225 8.25221C6.63944 9.86502 5.73337 12.0525 5.73337 14.3333L5.73337 22.9333H15.7667C16.9071 22.9333 18.0009 23.3864 18.8073 24.1928C19.6137 24.9992 20.0667 26.0929 20.0667 27.2333V35.8333C20.0667 36.9738 19.6137 38.0675 18.8073 38.8739C18.0009 39.6803 16.9071 40.1333 15.7667 40.1333H7.1667ZM27.2334 40.1333C26.0929 40.1333 24.9992 39.6803 24.1928 38.8739C23.3864 38.0675 22.9334 36.9738 22.9334 35.8333L22.9334 14.3333C22.9334 11.2922 24.1415 8.37559 26.2919 6.22517C28.4423 4.07476 31.3589 2.86666 34.4 2.86666V5.73333C32.1192 5.73333 29.9317 6.6394 28.3189 8.25221C26.7061 9.86502 25.8 12.0525 25.8 14.3333V22.9333H35.8334C36.9738 22.9333 38.0675 23.3864 38.8739 24.1928C39.6803 24.9992 40.1334 26.0929 40.1334 27.2333V35.8333C40.1334 36.9738 39.6803 38.0675 38.8739 38.8739C38.0675 39.6803 36.9738 40.1333 35.8334 40.1333L27.2334 40.1333Z" fill="white"/>
</svg>
