<!-- Generated by IcoMoon.io -->
<svg version="1.1" xmlns="http://www.w3.org/2000/svg" width="1024" height="1024" viewBox="0 0 1024 1024">
<title></title>
<g id="icomoon-ignore">
</g>
<path d="M512.005 85.338c115.924 0 130.388 0.426 175.872 2.56 45.44 2.133 76.372 9.258 103.593 19.84 28.16 10.837 51.884 25.514 75.607 49.194 21.696 21.329 38.482 47.129 49.193 75.606 10.54 27.18 17.708 58.156 19.84 103.596 2.007 45.481 2.56 59.945 2.56 175.872 0 115.924-0.425 130.388-2.56 175.872-2.132 45.44-9.3 76.372-19.84 103.593-10.68 28.493-27.471 54.3-49.193 75.607-21.335 21.688-47.135 38.474-75.607 49.193-27.177 10.54-58.153 17.708-103.593 19.84-45.484 2.007-59.948 2.56-175.872 2.56-115.927 0-130.391-0.425-175.872-2.56-45.44-2.132-76.375-9.3-103.596-19.84-28.487-10.688-54.292-27.479-75.606-49.193-21.7-21.327-38.488-47.127-49.194-75.607-10.582-27.177-17.707-58.153-19.84-103.593-2.006-45.484-2.56-59.948-2.56-175.872 0-115.927 0.426-130.391 2.56-175.872 2.133-45.484 9.258-76.375 19.84-103.596 10.677-28.494 27.469-54.301 49.194-75.606 21.319-21.708 47.122-38.497 75.606-49.194 27.22-10.582 58.112-17.707 103.596-19.84 45.481-2.006 59.945-2.56 175.872-2.56zM512.005 298.67c-56.581 0-110.843 22.477-150.851 62.484s-62.484 94.269-62.484 150.851c0 56.579 22.477 110.84 62.484 150.848s94.269 62.484 150.851 62.484c56.579 0 110.84-22.477 150.848-62.484s62.484-94.269 62.484-150.848c0-56.581-22.477-110.843-62.484-150.851s-94.269-62.484-150.848-62.484zM789.338 288.005c0-14.147-5.619-27.712-15.621-37.713s-23.567-15.621-37.711-15.621c-14.147 0-27.712 5.619-37.714 15.621s-15.621 23.567-15.621 37.713c0 14.144 5.619 27.709 15.621 37.711s23.567 15.621 37.714 15.621c14.144 0 27.709-5.619 37.711-15.621s15.621-23.567 15.621-37.711zM512.005 384.005c33.946 0 66.504 13.484 90.509 37.489s37.491 56.563 37.491 90.511c0 33.946-13.486 66.504-37.491 90.509s-56.563 37.491-90.509 37.491c-33.948 0-66.506-13.486-90.511-37.491s-37.489-56.563-37.489-90.509c0-33.948 13.484-66.506 37.489-90.511s56.563-37.489 90.511-37.489z"></path>
</svg>
