<svg width="74" height="74" viewBox="0 0 74 74" fill="none" xmlns="http://www.w3.org/2000/svg">
<path d="M9.86668 41.1876H8.14575V39.4667L8.14575 24.6667C8.14575 20.285 9.88635 16.0829 12.9846 12.9846C15.6746 10.2946 19.1966 8.6281 22.9458 8.23554V6.7366C18.8001 7.13435 14.8999 8.96004 11.93 11.93C8.55201 15.3079 6.65428 19.8895 6.65428 24.6667L6.65428 61.6667C6.65428 63.1728 7.25261 64.6173 8.31764 65.6824C9.38267 66.7474 10.8272 67.3457 12.3333 67.3457H27.1333C28.6395 67.3457 30.084 66.7474 31.1491 65.6824C32.2141 64.6173 32.8124 63.1728 32.8124 61.6667V46.8667C32.8124 45.3605 32.2141 43.916 31.1491 42.8509C30.084 41.7859 28.6395 41.1876 27.1333 41.1876H9.86668ZM44.4 41.1876H42.6791L42.6791 39.4667V24.6667C42.6791 20.285 44.4197 16.0829 47.518 12.9846C50.2079 10.2946 53.7299 8.6281 57.4791 8.23554V6.7366C53.3335 7.13435 49.4332 8.96004 46.4633 11.93C43.0853 15.3079 41.1876 19.8895 41.1876 24.6667L41.1876 61.6667C41.1876 63.1728 41.7859 64.6173 42.851 65.6824C43.916 66.7474 45.3605 67.3457 46.8667 67.3457H61.6667C63.1729 67.3457 64.6174 66.7474 65.6824 65.6824C66.7474 64.6173 67.3457 63.1728 67.3457 61.6667V46.8667C67.3457 45.3605 66.7474 43.916 65.6824 42.8509C64.6174 41.7859 63.1729 41.1876 61.6667 41.1876L44.4 41.1876Z" stroke="#FF612F" stroke-width="3.44186"/>
</svg>
