<svg aria-hidden="true" style="position: absolute; width: 0; height: 0; overflow: hidden;" version="1.1" xmlns="http://www.w3.org/2000/svg" xmlns:xlink="http://www.w3.org/1999/xlink">
<defs>
<symbol id="facebook" viewBox="0 0 32 32">
<path d="M7.981 3.2c-2.648 0-4.781 2.129-4.781 4.772v16.591c0 2.644 2.132 4.772 4.781 4.772h6.653v-10.217h-2.707v-3.678h2.707v-3.143c0-2.469 1.599-4.736 5.283-4.736 1.492 0 2.594 0.143 2.594 0.143l-0.087 3.435c0 0-1.125-0.011-2.352-0.011-1.328 0-1.541 0.611-1.541 1.625v2.686h3.999l-0.174 3.678h-3.825v10.217l6.070 0c2.648 0 4.781-2.129 4.781-4.772v-16.591c0-2.643-2.132-4.772-4.781-4.772l-16.621-0z"></path>
</symbol>
<symbol id="instagram" viewBox="0 0 32 32">
<path d="M16 2.667c3.623 0 4.075 0.013 5.496 0.080 1.42 0.067 2.387 0.289 3.237 0.62 0.88 0.339 1.621 0.797 2.363 1.537 0.678 0.667 1.203 1.473 1.537 2.363 0.329 0.849 0.553 1.817 0.62 3.237 0.063 1.421 0.080 1.873 0.080 5.496s-0.013 4.075-0.080 5.496c-0.067 1.42-0.291 2.387-0.62 3.237-0.334 0.89-0.858 1.697-1.537 2.363-0.667 0.678-1.473 1.202-2.363 1.537-0.849 0.329-1.817 0.553-3.237 0.62-1.421 0.063-1.873 0.080-5.496 0.080s-4.075-0.013-5.496-0.080c-1.42-0.067-2.387-0.291-3.237-0.62-0.89-0.334-1.697-0.859-2.363-1.537-0.678-0.666-1.203-1.473-1.537-2.363-0.331-0.849-0.553-1.817-0.62-3.237-0.063-1.421-0.080-1.873-0.080-5.496s0.013-4.075 0.080-5.496c0.067-1.421 0.289-2.387 0.62-3.237 0.334-0.89 0.858-1.697 1.537-2.363 0.666-0.678 1.473-1.203 2.363-1.537 0.851-0.331 1.816-0.553 3.237-0.62 1.421-0.063 1.873-0.080 5.496-0.080zM16 9.333c-1.768 0-3.464 0.702-4.714 1.953s-1.953 2.946-1.953 4.714c0 1.768 0.702 3.464 1.953 4.714s2.946 1.953 4.714 1.953c1.768 0 3.464-0.702 4.714-1.953s1.953-2.946 1.953-4.714c0-1.768-0.702-3.464-1.953-4.714s-2.946-1.953-4.714-1.953zM24.667 9c0-0.442-0.176-0.866-0.488-1.179s-0.736-0.488-1.178-0.488c-0.442 0-0.866 0.176-1.179 0.488s-0.488 0.736-0.488 1.179c0 0.442 0.176 0.866 0.488 1.178s0.736 0.488 1.179 0.488c0.442 0 0.866-0.176 1.178-0.488s0.488-0.736 0.488-1.178zM16 12c1.061 0 2.078 0.421 2.828 1.172s1.172 1.768 1.172 2.828c0 1.061-0.421 2.078-1.172 2.828s-1.768 1.172-2.828 1.172c-1.061 0-2.078-0.421-2.828-1.172s-1.172-1.768-1.172-2.828c0-1.061 0.421-2.078 1.172-2.828s1.768-1.172 2.828-1.172z"></path>
</symbol>
</defs>
</svg>
